<mxfile host="app.diagrams.net" agent="Mozilla/5.0 (Windows NT 10.0; Win64; x64) AppleWebKit/537.36 (KHTML, like Gecko) Chrome/135.0.0.0 Safari/537.36" version="26.2.12">
  <diagram name="페이지-1" id="L8Ghz3SxN5thEWN98ch8">
    <mxGraphModel dx="1279" dy="636" grid="1" gridSize="10" guides="1" tooltips="1" connect="1" arrows="1" fold="1" page="1" pageScale="1" pageWidth="827" pageHeight="1169" math="0" shadow="0">
      <root>
        <mxCell id="0" />
        <mxCell id="1" parent="0" />
        <mxCell id="yXau8ex7B6AjTLi0JQIw-18" value="서버 시스템" style="shape=umlLifeline;perimeter=lifelinePerimeter;whiteSpace=wrap;html=1;container=0;dropTarget=0;collapsible=0;recursiveResize=0;outlineConnect=0;portConstraint=eastwest;newEdgeStyle={&quot;edgeStyle&quot;:&quot;elbowEdgeStyle&quot;,&quot;elbow&quot;:&quot;vertical&quot;,&quot;curved&quot;:0,&quot;rounded&quot;:0};" vertex="1" parent="1">
          <mxGeometry x="563.82" y="120" width="100" height="520" as="geometry" />
        </mxCell>
        <mxCell id="yXau8ex7B6AjTLi0JQIw-24" value="사용자" style="shape=umlActor;verticalLabelPosition=bottom;verticalAlign=top;html=1;outlineConnect=0;" vertex="1" parent="1">
          <mxGeometry x="123.82" y="80" width="30" height="60" as="geometry" />
        </mxCell>
        <mxCell id="yXau8ex7B6AjTLi0JQIw-26" value="" style="html=1;points=[];perimeter=orthogonalPerimeter;outlineConnect=0;targetShapes=umlLifeline;portConstraint=eastwest;newEdgeStyle={&quot;edgeStyle&quot;:&quot;elbowEdgeStyle&quot;,&quot;elbow&quot;:&quot;vertical&quot;,&quot;curved&quot;:0,&quot;rounded&quot;:0};" vertex="1" parent="1">
          <mxGeometry x="133.82" y="160" width="10" height="480" as="geometry" />
        </mxCell>
        <mxCell id="yXau8ex7B6AjTLi0JQIw-27" value="D-Day 앱 데이터 동기화 관련&lt;div&gt;순차 다이어그램&lt;/div&gt;" style="text;html=1;align=left;verticalAlign=middle;whiteSpace=wrap;rounded=0;fontSize=24;" vertex="1" parent="1">
          <mxGeometry x="123.82" y="30" width="526.18" height="30" as="geometry" />
        </mxCell>
        <mxCell id="yXau8ex7B6AjTLi0JQIw-29" value="앱 시스템" style="shape=umlLifeline;perimeter=lifelinePerimeter;whiteSpace=wrap;html=1;container=0;dropTarget=0;collapsible=0;recursiveResize=0;outlineConnect=0;portConstraint=eastwest;newEdgeStyle={&quot;edgeStyle&quot;:&quot;elbowEdgeStyle&quot;,&quot;elbow&quot;:&quot;vertical&quot;,&quot;curved&quot;:0,&quot;rounded&quot;:0};" vertex="1" parent="1">
          <mxGeometry x="343.82" y="120" width="100" height="520" as="geometry" />
        </mxCell>
        <mxCell id="yXau8ex7B6AjTLi0JQIw-52" value="3.1.1 어느 쪽 데이터가&lt;div&gt;최신인지 체크&lt;/div&gt;" style="text;html=1;align=left;verticalAlign=middle;resizable=0;points=[];autosize=1;strokeColor=none;fillColor=none;fontSize=11;" vertex="1" parent="1">
          <mxGeometry x="623.8199999999999" y="340" width="130" height="40" as="geometry" />
        </mxCell>
        <mxCell id="yXau8ex7B6AjTLi0JQIw-1" value="" style="group" vertex="1" connectable="0" parent="1">
          <mxGeometry x="280" y="430" width="360" height="110" as="geometry" />
        </mxCell>
        <mxCell id="yXau8ex7B6AjTLi0JQIw-2" value="" style="rounded=0;whiteSpace=wrap;html=1;fillColor=none;" vertex="1" parent="yXau8ex7B6AjTLi0JQIw-1">
          <mxGeometry width="360" height="110.00000000000001" as="geometry" />
        </mxCell>
        <mxCell id="yXau8ex7B6AjTLi0JQIw-3" value="&amp;nbsp; alt" style="shape=card;whiteSpace=wrap;html=1;direction=west;size=20;fillColor=none;align=left;" vertex="1" parent="yXau8ex7B6AjTLi0JQIw-1">
          <mxGeometry width="40" height="16.5" as="geometry" />
        </mxCell>
        <mxCell id="yXau8ex7B6AjTLi0JQIw-5" value="" style="endArrow=none;dashed=1;html=1;rounded=0;exitX=0;exitY=0.5;exitDx=0;exitDy=0;entryX=1;entryY=0.5;entryDx=0;entryDy=0;" edge="1" parent="yXau8ex7B6AjTLi0JQIw-1" source="yXau8ex7B6AjTLi0JQIw-2" target="yXau8ex7B6AjTLi0JQIw-2">
          <mxGeometry width="50" height="50" relative="1" as="geometry">
            <mxPoint x="277.37704918032784" y="99.00000000000001" as="sourcePoint" />
            <mxPoint x="306.88524590163934" y="71.5" as="targetPoint" />
          </mxGeometry>
        </mxCell>
        <mxCell id="yXau8ex7B6AjTLi0JQIw-7" value="3.3 기기에 저장된 앱 데이터를 서버로 업로드" style="html=1;verticalAlign=bottom;endArrow=block;edgeStyle=elbowEdgeStyle;elbow=vertical;curved=0;rounded=0;labelBackgroundColor=none;" edge="1" parent="yXau8ex7B6AjTLi0JQIw-1">
          <mxGeometry relative="1" as="geometry">
            <mxPoint x="120" y="87.5" as="sourcePoint" />
            <Array as="points">
              <mxPoint x="209.64" y="87.5" />
            </Array>
            <mxPoint x="330" y="87.5" as="targetPoint" />
          </mxGeometry>
        </mxCell>
        <mxCell id="yXau8ex7B6AjTLi0JQIw-6" value="[사용가 기기&lt;div&gt;&lt;span style=&quot;background-color: transparent; color: light-dark(rgb(0, 0, 0), rgb(255, 255, 255));&quot;&gt;데이터가 최신]&lt;/span&gt;&lt;/div&gt;" style="text;html=1;align=center;verticalAlign=middle;whiteSpace=wrap;rounded=0;" vertex="1" parent="yXau8ex7B6AjTLi0JQIw-1">
          <mxGeometry y="70" width="80" height="17.5" as="geometry" />
        </mxCell>
        <mxCell id="yXau8ex7B6AjTLi0JQIw-53" value="3.2 서버에 저장된 데이터를 앱으로 다운로드" style="html=1;verticalAlign=bottom;endArrow=block;dashed=1;endSize=8;edgeStyle=elbowEdgeStyle;elbow=vertical;curved=0;rounded=0;endFill=1;labelBackgroundColor=none;" edge="1" parent="yXau8ex7B6AjTLi0JQIw-1">
          <mxGeometry relative="1" as="geometry">
            <mxPoint x="118.82000000000016" y="32.99500000000012" as="targetPoint" />
            <Array as="points">
              <mxPoint x="253.77049180327867" y="32.995000000000005" />
            </Array>
            <mxPoint x="328.82000000000016" y="32.99500000000012" as="sourcePoint" />
          </mxGeometry>
        </mxCell>
        <mxCell id="yXau8ex7B6AjTLi0JQIw-19" value="" style="html=1;points=[];perimeter=orthogonalPerimeter;outlineConnect=0;targetShapes=umlLifeline;portConstraint=eastwest;newEdgeStyle={&quot;edgeStyle&quot;:&quot;elbowEdgeStyle&quot;,&quot;elbow&quot;:&quot;vertical&quot;,&quot;curved&quot;:0,&quot;rounded&quot;:0};" vertex="1" parent="1">
          <mxGeometry x="608.82" y="360" width="10" height="170" as="geometry" />
        </mxCell>
        <mxCell id="yXau8ex7B6AjTLi0JQIw-20" value="" style="html=1;points=[];perimeter=orthogonalPerimeter;outlineConnect=0;targetShapes=umlLifeline;portConstraint=eastwest;newEdgeStyle={&quot;edgeStyle&quot;:&quot;elbowEdgeStyle&quot;,&quot;elbow&quot;:&quot;vertical&quot;,&quot;curved&quot;:0,&quot;rounded&quot;:0};" vertex="1" parent="1">
          <mxGeometry x="613.8199999999999" y="395" width="10" height="20" as="geometry" />
        </mxCell>
        <mxCell id="yXau8ex7B6AjTLi0JQIw-21" value="" style="endArrow=classic;html=1;rounded=0;edgeStyle=orthogonalEdgeStyle;" edge="1" parent="1" target="yXau8ex7B6AjTLi0JQIw-20">
          <mxGeometry width="50" height="50" relative="1" as="geometry">
            <mxPoint x="618.8199999999999" y="375" as="sourcePoint" />
            <mxPoint x="673.8199999999999" y="395" as="targetPoint" />
            <Array as="points">
              <mxPoint x="643.8199999999999" y="375" />
              <mxPoint x="643.8199999999999" y="395" />
            </Array>
          </mxGeometry>
        </mxCell>
        <mxCell id="yXau8ex7B6AjTLi0JQIw-39" value="" style="html=1;points=[];perimeter=orthogonalPerimeter;outlineConnect=0;targetShapes=umlLifeline;portConstraint=eastwest;newEdgeStyle={&quot;edgeStyle&quot;:&quot;elbowEdgeStyle&quot;,&quot;elbow&quot;:&quot;vertical&quot;,&quot;curved&quot;:0,&quot;rounded&quot;:0};" vertex="1" parent="1">
          <mxGeometry x="388.82" y="200" width="10" height="380" as="geometry" />
        </mxCell>
        <mxCell id="yXau8ex7B6AjTLi0JQIw-40" value="1. 데이터 동기화 버튼 클릭" style="html=1;verticalAlign=bottom;endArrow=block;edgeStyle=elbowEdgeStyle;elbow=vertical;curved=0;rounded=0;" edge="1" parent="1">
          <mxGeometry relative="1" as="geometry">
            <mxPoint x="143.82" y="200" as="sourcePoint" />
            <Array as="points">
              <mxPoint x="228.64" y="200" />
            </Array>
            <mxPoint x="388.82" y="200" as="targetPoint" />
          </mxGeometry>
        </mxCell>
        <mxCell id="yXau8ex7B6AjTLi0JQIw-41" value="" style="endArrow=classic;html=1;rounded=0;edgeStyle=orthogonalEdgeStyle;" edge="1" parent="1" target="yXau8ex7B6AjTLi0JQIw-42">
          <mxGeometry width="50" height="50" relative="1" as="geometry">
            <mxPoint x="398.82" y="215" as="sourcePoint" />
            <mxPoint x="453.82" y="235" as="targetPoint" />
            <Array as="points">
              <mxPoint x="423.82" y="215" />
              <mxPoint x="423.82" y="235" />
            </Array>
          </mxGeometry>
        </mxCell>
        <mxCell id="yXau8ex7B6AjTLi0JQIw-42" value="" style="html=1;points=[];perimeter=orthogonalPerimeter;outlineConnect=0;targetShapes=umlLifeline;portConstraint=eastwest;newEdgeStyle={&quot;edgeStyle&quot;:&quot;elbowEdgeStyle&quot;,&quot;elbow&quot;:&quot;vertical&quot;,&quot;curved&quot;:0,&quot;rounded&quot;:0};" vertex="1" parent="1">
          <mxGeometry x="393.82" y="235" width="10" height="20" as="geometry" />
        </mxCell>
        <mxCell id="yXau8ex7B6AjTLi0JQIw-48" value="1.1 만료되지 않은&lt;div&gt;로그인 토큰이 있는지 체크&lt;/div&gt;" style="text;html=1;align=left;verticalAlign=middle;resizable=0;points=[];autosize=1;strokeColor=none;fillColor=none;fontSize=11;" vertex="1" parent="1">
          <mxGeometry x="403.82" y="180" width="140" height="40" as="geometry" />
        </mxCell>
        <mxCell id="yXau8ex7B6AjTLi0JQIw-50" value="3.1 데이터 동기화 요청 서버에 전송" style="html=1;verticalAlign=bottom;endArrow=block;edgeStyle=elbowEdgeStyle;elbow=vertical;curved=0;rounded=0;" edge="1" parent="1" target="yXau8ex7B6AjTLi0JQIw-19">
          <mxGeometry relative="1" as="geometry">
            <mxPoint x="398.82000000000016" y="360" as="sourcePoint" />
            <Array as="points">
              <mxPoint x="488.64" y="360" />
            </Array>
            <mxPoint x="590" y="360" as="targetPoint" />
          </mxGeometry>
        </mxCell>
        <mxCell id="yXau8ex7B6AjTLi0JQIw-54" value="4. 데이터 동기화 완료 메시지 출력" style="html=1;verticalAlign=bottom;endArrow=open;dashed=1;endSize=8;edgeStyle=elbowEdgeStyle;elbow=vertical;curved=0;rounded=0;" edge="1" parent="1">
          <mxGeometry relative="1" as="geometry">
            <mxPoint x="143.82" y="570" as="targetPoint" />
            <Array as="points">
              <mxPoint x="373.82" y="570" />
            </Array>
            <mxPoint x="388.82" y="570" as="sourcePoint" />
          </mxGeometry>
        </mxCell>
        <mxCell id="yXau8ex7B6AjTLi0JQIw-55" value="" style="group" vertex="1" connectable="0" parent="1">
          <mxGeometry x="10" y="270" width="410" height="70" as="geometry" />
        </mxCell>
        <mxCell id="yXau8ex7B6AjTLi0JQIw-56" value="" style="rounded=0;whiteSpace=wrap;html=1;fillColor=none;" vertex="1" parent="yXau8ex7B6AjTLi0JQIw-55">
          <mxGeometry width="410" height="70" as="geometry" />
        </mxCell>
        <mxCell id="yXau8ex7B6AjTLi0JQIw-57" value="&amp;nbsp; opt" style="shape=card;whiteSpace=wrap;html=1;direction=west;size=20;fillColor=none;align=left;" vertex="1" parent="yXau8ex7B6AjTLi0JQIw-55">
          <mxGeometry width="50" height="20" as="geometry" />
        </mxCell>
        <mxCell id="yXau8ex7B6AjTLi0JQIw-58" value="[만료되지 않은&amp;nbsp;&lt;span style=&quot;background-color: transparent; color: light-dark(rgb(0, 0, 0), rgb(255, 255, 255));&quot;&gt;토큰을&lt;/span&gt;&lt;div&gt;&lt;span style=&quot;background-color: transparent; color: light-dark(rgb(0, 0, 0), rgb(255, 255, 255));&quot;&gt;찾지 못했을 시]&lt;/span&gt;&lt;/div&gt;" style="text;html=1;align=center;verticalAlign=middle;whiteSpace=wrap;rounded=0;" vertex="1" parent="yXau8ex7B6AjTLi0JQIw-55">
          <mxGeometry y="20" width="120" height="30" as="geometry" />
        </mxCell>
        <mxCell id="yXau8ex7B6AjTLi0JQIw-61" value="" style="group;fillColor=default;" vertex="1" connectable="0" parent="yXau8ex7B6AjTLi0JQIw-55">
          <mxGeometry x="150" y="10" width="250" height="50" as="geometry" />
        </mxCell>
        <mxCell id="yXau8ex7B6AjTLi0JQIw-62" value="" style="rounded=0;whiteSpace=wrap;html=1;fillColor=none;" vertex="1" parent="yXau8ex7B6AjTLi0JQIw-61">
          <mxGeometry width="250" height="50" as="geometry" />
        </mxCell>
        <mxCell id="yXau8ex7B6AjTLi0JQIw-63" value="&amp;nbsp; ref" style="shape=card;whiteSpace=wrap;html=1;direction=west;size=20;fillColor=none;align=left;" vertex="1" parent="yXau8ex7B6AjTLi0JQIw-61">
          <mxGeometry width="50" height="20" as="geometry" />
        </mxCell>
        <mxCell id="yXau8ex7B6AjTLi0JQIw-64" value="[로그인 순차 다이어그램&lt;span style=&quot;background-color: transparent; color: light-dark(rgb(0, 0, 0), rgb(255, 255, 255));&quot;&gt;]&lt;/span&gt;" style="text;html=1;align=center;verticalAlign=middle;whiteSpace=wrap;rounded=0;" vertex="1" parent="yXau8ex7B6AjTLi0JQIw-61">
          <mxGeometry y="14.29" width="250" height="21.43" as="geometry" />
        </mxCell>
        <mxCell id="yXau8ex7B6AjTLi0JQIw-4" value="[서버&lt;div&gt;데이터가&amp;nbsp;&lt;span style=&quot;background-color: transparent; color: light-dark(rgb(0, 0, 0), rgb(255, 255, 255));&quot;&gt;최신]&lt;/span&gt;&lt;/div&gt;" style="text;html=1;align=center;verticalAlign=middle;whiteSpace=wrap;rounded=0;" vertex="1" parent="1">
          <mxGeometry x="280" y="449.7" width="80" height="19.25" as="geometry" />
        </mxCell>
      </root>
    </mxGraphModel>
  </diagram>
</mxfile>
